<?xml version="1.0" encoding="utf-8"?>
<!-- Generator: Adobe Illustrator 24.1.1, SVG Export Plug-In . SVG Version: 6.00 Build 0)  -->
<svg version="1.1" id="레이어_1" xmlns="http://www.w3.org/2000/svg" xmlns:xlink="http://www.w3.org/1999/xlink" x="0px"
	 y="0px" viewBox="0 0 31.3 31.3" style="enable-background:new 0 0 31.3 31.3;" xml:space="preserve">
<style type="text/css">
	.st0{fill:#C1C1C1;stroke:#000000;stroke-miterlimit:10;}
	.st1{fill:#FFFFFF;stroke:#222222;stroke-miterlimit:10;}
</style>
<g>
	<circle class="st0" cx="15.7" cy="15.7" r="13.5"/>
	<path class="st1" d="M26.7,23l-0.1-0.5l-0.1-0.5l-0.1-0.5l-0.2-0.5l-0.2-0.5L25.9,20l-0.2-0.3l-0.2-0.3l-0.2-0.2L25.1,19l-0.3-0.2
		l-0.3-0.2l-0.3-0.1l-0.8-0.3l-0.8-0.3l-0.8-0.2l-0.8-0.2l-0.8-0.2l-0.8-0.1l-0.1,0l-0.1-0.1L19.2,17l-0.1-0.1l0-0.1l0-0.1l0-0.1
		l0-0.1l0.1-0.1l0.2-0.3l0.2-0.3l0.3-0.6l0.3-0.6l0.2-0.6l0.2-0.6l0.2-0.7l0.1-0.7l0.1-0.7l0.1-0.7l0-0.7l0-0.7l0-0.4l-0.1-0.4
		l-0.1-0.4L21,7.4L20.8,7l-0.2-0.4l-0.2-0.4l-0.2-0.4l-0.3-0.3l-0.3-0.3l-0.3-0.3L19,4.6l-0.4-0.2l-0.4-0.2L17.8,4l-0.4-0.2L17,3.7
		l-0.4-0.1l-0.4-0.1l-0.4,0l-0.4,0l-0.4,0.1l-0.4,0.1L14,3.8L13.5,4l-0.4,0.2l-0.4,0.2l-0.4,0.2l-0.3,0.3l-0.3,0.3l-0.3,0.3
		l-0.3,0.3l-0.2,0.4l-0.2,0.4L10.5,7l-0.1,0.4l-0.1,0.4l-0.1,0.4l0,0.4l0,0.4l0,0.7l0,0.7l0.1,0.7l0.1,0.7l0.1,0.7l0.2,0.7l0.2,0.6
		l0.2,0.6l0.3,0.6l0.3,0.6L12,16l0.2,0.3l0.1,0.1l0,0.1l0,0.1l0,0.1l0,0.1L12.2,17l-0.1,0.1L12,17.1l-0.1,0L11,17.3l-0.8,0.2
		l-0.8,0.2l-0.8,0.2l-0.8,0.3l-0.8,0.3l-0.3,0.1l-0.3,0.2L6.3,19L6,19.2l-0.2,0.2l-0.2,0.3L5.4,20l-0.1,0.3l-0.2,0.5l-0.2,0.5
		l-0.1,0.5l-0.1,0.5L4.6,23l0,0.2l0,0.2l0.1,0.2l0.2,0.4l0.3,0.3l0.2,0.1l0.1,0.1c2.3,3.1,8.2,4.4,8.2,4.4c5,0.7,9.2-1.9,11.4-3.7
		c0.4-0.3,0.7-0.6,1-0.8l0,0l0.2-0.1l0.2-0.2c0.1-0.1,0.2-0.4,0.2-0.4l0.1-0.2l0.1-0.2l0-0.2L26.7,23z"/>
</g>
<path class="st1" d="M-23.5-4.9"/>
</svg>
