<?xml version="1.0" encoding="utf-8"?>
<!-- Generator: Adobe Illustrator 24.1.1, SVG Export Plug-In . SVG Version: 6.00 Build 0)  -->
<svg version="1.1" id="Layer_2" xmlns="http://www.w3.org/2000/svg" xmlns:xlink="http://www.w3.org/1999/xlink" x="0px" y="0px"
	 viewBox="0 0 32 32" style="enable-background:new 0 0 32 32;" xml:space="preserve">
<g>
	<path d="M16,7c-5,0-9,4-9,9s4,9,9,9c5,0,9-4,9-9S21,7,16,7z M16,22c-3.3,0-6-2.7-6-6s2.7-6,6-6s6,2.7,6,6S19.3,22,16,22z"/>
	<path d="M16,5.6c0.8,0,1.5-0.7,1.5-1.5V2c0-0.8-0.7-1.5-1.5-1.5S14.5,1.2,14.5,2v2.1C14.5,5,15.2,5.6,16,5.6z"/>
	<path d="M6.6,8.7C6.8,9,7.2,9.1,7.6,9.1S8.4,9,8.7,8.7c0.6-0.6,0.6-1.5,0-2.1L7.2,5C6.6,4.5,5.6,4.5,5,5C4.5,5.6,4.5,6.6,5,7.2
		L6.6,8.7z"/>
	<path d="M5.6,16c0-0.8-0.7-1.5-1.5-1.5H2c-0.8,0-1.5,0.7-1.5,1.5c0,0.8,0.7,1.5,1.5,1.5h2.1C5,17.5,5.6,16.8,5.6,16z"/>
	<path d="M6.6,23.3L5,24.8c-0.6,0.6-0.6,1.5,0,2.1c0.3,0.3,0.7,0.4,1.1,0.4s0.8-0.1,1.1-0.4l1.5-1.5c0.6-0.6,0.6-1.5,0-2.1
		C8.1,22.7,7.1,22.7,6.6,23.3z"/>
	<path d="M16,26.4c-0.8,0-1.5,0.7-1.5,1.5V30c0,0.8,0.7,1.5,1.5,1.5c0.8,0,1.5-0.7,1.5-1.5v-2.1C17.5,27,16.8,26.4,16,26.4z"/>
	<path d="M25.4,23.3c-0.6-0.6-1.5-0.6-2.1,0s-0.6,1.5,0,2.1l1.5,1.5c0.3,0.3,0.7,0.4,1.1,0.4s0.8-0.1,1.1-0.4c0.6-0.6,0.6-1.5,0-2.1
		L25.4,23.3z"/>
	<path d="M30,14.5h-2.1c-0.8,0-1.5,0.7-1.5,1.5c0,0.8,0.7,1.5,1.5,1.5H30c0.8,0,1.5-0.7,1.5-1.5S30.8,14.5,30,14.5z"/>
	<path d="M24.4,9.1c0.4,0,0.8-0.1,1.1-0.4L27,7.2c0.6-0.6,0.6-1.5,0-2.1s-1.5-0.6-2.1,0l-1.5,1.5c-0.6,0.6-0.6,1.5,0,2.1
		C23.6,9,24,9.1,24.4,9.1z"/>
	<circle cx="16.5" cy="16" r="6.5"/>
</g>
</svg>
